# xmcd CD database file
#
# Track frame offsets:
#	150
#	9150
#	63150
#	117150
#	171150
#
# Disc length: 2402 seconds
#
# Revision: 0
# Processed by: cddbd v1.5.2PL0 Copyright (c) Steve Scherf et al.
# Submitted via: CDex 1.70beta2
#
DISCID=31096005
DTITLE=Bad Sector - CMASA
DYEAR=2009
DGENRE=Expérimental
TTITLE0=Entrance
TTITLE1=CMASA 1
TTITLE2=CMASA 2
TTITLE3=CMASA 3
TTITLE4=Exit
EXTD=YEAR: 2009
EXTT0=
EXTT1=
EXTT2=
EXTT3=
EXTT4=
PLAYORDER=
